<?xml version="1.0" encoding="utf-8"?>
<!-- Generator: Adobe Illustrator 25.4.1, SVG Export Plug-In . SVG Version: 6.00 Build 0)  -->
<svg version="1.1" id="Layer_1" xmlns="http://www.w3.org/2000/svg" xmlns:xlink="http://www.w3.org/1999/xlink" x="0px" y="0px"
	 viewBox="0 0 150 34" style="enable-background:new 0 0 150 34;" xml:space="preserve">
<style type="text/css">
	.st0{fill:#008F43;}
	.st1{fill:url(#SVGID_1_);}
	.st2{fill:url(#SVGID_00000008836444782673816010000005153952658383126443_);}
	.st3{fill:#231815;}
</style>
<path class="st0" d="M37.5,15.8L37.5,15.8c-0.6-0.6-1-1.4-1-2.3c0-0.2-0.1-0.5-0.1-0.7c0,0,0,0,0,0c-0.4-1.8-1.8-3.1-3.4-3.7
	c0,0-0.2,0-0.4-0.1c-0.7-0.3-1.2-0.8-1.6-1.4c-1-1.9-3.1-3-5.3-2.7c-0.9,0.1-1.8-0.1-2.4-0.6c-1.8-1.3-4.3-1.3-6.1,0
	c-0.8,0.4-1.6,0.6-2.5,0.6c-2.2-0.3-4.4,0.8-5.5,2.7C8.7,8.3,8,8.9,7.1,9.1c-1.9,0.7-3.3,2.4-3.5,4.4c-0.2,0.9-0.5,1.7-1.1,2.3
	c-1,1-1.6,2.4-1.7,3.8c0,0,0,0,0,0c0,0.1,0,0.1,0,0.2c0,0.1,0,0.1,0,0.2v0.1c0,0,0,0,0,0c0.2,2.7,2.5,5.4,5,5.5c0,0,0,0,0,0h0.1
	c0,0,0,0,0.1,0c0,0,0,0,0,0h8.9c0.8,0,1.5,0.7,1.5,1.5v0.4c0,0.8-0.6,1.4-1.4,1.5l-6.8,1.2c-0.3,0-0.5,0.2-0.5,0.5v0.9h24.5v-0.9
	c0-0.3-0.2-0.4-0.5-0.5L25,29c-0.8-0.1-1.3-0.7-1.3-1.5v-0.3c0-0.8,0.7-1.5,1.5-1.5h8.3c3.2,0,5.8-2.6,5.7-5.8
	C39.2,18.4,38.5,16.9,37.5,15.8z"/>
<linearGradient id="SVGID_1_" gradientUnits="userSpaceOnUse" x1="24.8653" y1="810.2042" x2="6.5853" y2="832.7741" gradientTransform="matrix(1 0 0 1 0 -807.9998)">
	<stop  offset="0" style="stop-color:#6FB92C"/>
	<stop  offset="0.36" style="stop-color:#42A835"/>
	<stop  offset="0.79" style="stop-color:#12963F"/>
	<stop  offset="1" style="stop-color:#008F43"/>
</linearGradient>
<path class="st1" d="M12.6,11.9C19.7,8.7,26.9,7.8,32.5,9c-0.7-0.3-1.3-0.8-1.6-1.5c-1-1.9-3.1-3-5.3-2.7c-0.9,0.1-1.8-0.1-2.5-0.6
	c-1.8-1.3-4.3-1.3-6.1,0c-0.8,0.4-1.6,0.6-2.4,0.6c-2.2-0.3-4.4,0.8-5.5,2.7C8.7,8.3,8,8.9,7.1,9.1c-1.9,0.7-3.3,2.4-3.5,4.4
	c-0.2,0.9-0.5,1.7-1.1,2.3C1.4,17,0.8,18.5,0.8,20v0.1C4.2,16.7,8.2,13.9,12.6,11.9z"/>
<linearGradient id="SVGID_00000005963114461372610940000012415052350760663732_" gradientUnits="userSpaceOnUse" x1="30.684" y1="809.3566" x2="8.9266" y2="836.224" gradientTransform="matrix(1 0 0 1 0 -807.9998)">
	<stop  offset="0" style="stop-color:#44AF35"/>
	<stop  offset="0.22" style="stop-color:#2DA43A"/>
	<stop  offset="0.51" style="stop-color:#14983F"/>
	<stop  offset="0.78" style="stop-color:#059142"/>
	<stop  offset="1" style="stop-color:#008F43"/>
</linearGradient>
<path style="fill:url(#SVGID_00000005963114461372610940000012415052350760663732_);" d="M19.1,16.3c5.4-2.5,11.2-3.7,17.2-3.3
	c-0.4-2-1.8-3.3-3.5-3.9l0,0c-0.1,0-0.9-0.3-1-0.3c-5.5-1.1-12-0.5-19.2,2.7c-4.4,1.9-8.4,4.7-11.8,8.2c0,2.9,2.4,6,5.2,6
	C9.6,21.5,14.1,18.4,19.1,16.3z"/>
<path class="st0" d="M37.5,15.8c-0.7-0.6-1.1-1.4-1.1-2.3c0-0.2-0.1-0.5-0.1-0.7c-6-0.4-11.9,0.8-17.4,3.3c-5,2.2-9.5,5.4-13.1,9.5
	h9.1c0.8,0,1.5,0.7,1.5,1.5v0.4c0,0.8-0.6,1.4-1.4,1.5l-6.8,1.2c-0.3,0-0.5,0.2-0.5,0.5v0.9h24.5v-0.9c0-0.3-0.2-0.4-0.5-0.5L25,29
	c-0.8-0.1-1.3-0.7-1.3-1.5v-0.3c0-0.8,0.7-1.5,1.5-1.5h8.3c3.2,0,5.8-2.6,5.7-5.8C39.2,18.4,38.5,16.9,37.5,15.8L37.5,15.8z"/>
<path class="st3" d="M70.4,8.1H51.6c-0.6,0-1.1,0.5-1.1,1.1V26c0,0.6,0.5,1.1,1.1,1.1h18.7c0.6,0,1.1-0.5,1.1-1.1l0.1-16.6
	C71.6,8.7,71.1,8.2,70.4,8.1C70.5,8.1,70.5,8.1,70.4,8.1z M64.2,9.6h1.6c0.2,0.6,0.3,1.3,0.4,1.9h-2L64.2,9.6z M53.1,9.6h9
	c0,0.7,0,1.3,0.1,1.9h-9.1V9.6z M69,25.9H53.1v-13h9.3c0.3,2.5,1,5,2,7.3c-0.9,1.4-2.1,2.6-3.4,3.5c-0.1,0.1-0.1,0.2,0,0.2l0.4,0.9
	c0.1,0.1,0.1,0.1,0.2,0.1c1.4-0.8,2.6-1.8,3.6-3.1c0.7,1.2,1.5,2.3,2.6,3.3c0.1,0.1,0.2,0.1,0.3,0l0.6-0.7c0,0,0.1-0.1,0-0.1
	c-1-1.1-1.7-2.4-2.3-3.8c0.7-1,1.3-2.1,1.8-3.3c0.1-0.1-0.1-0.2-0.1-0.2l-1.2-0.7c0,0-0.1-0.1-0.2,0.1c-0.3,0.7-0.6,1.4-1,2.1
	c-0.6-1.8-0.9-3.7-1.1-5.6h3.4c0,0,0.5,0,0.5-0.6c-0.2-1.1-0.4-2.1-0.5-2.7H69V25.9z M61.7,22.1c-2.3,1-4.7,1.5-7.2,1.7l0,0
	c-0.1,0-0.2-0.1-0.3-0.3v-1.6c0-0.1,0.1-0.2,0.3-0.2l0,0c2.4,0,4.9-0.4,7.2-1.1c0.1,0,0.1,0.1,0.1,0.1v1
	C61.8,21.8,61.7,22,61.7,22.1L61.7,22.1z M55.3,19.7h5.4c0.6,0,1.1-0.5,1.1-1.1v-3.3c0-0.6-0.5-1.1-1.1-1.1c0,0,0,0,0,0h-5.4
	c-0.6,0-1.1,0.5-1.1,1.1c0,0,0,0,0,0v3.3C54.2,19.2,54.7,19.7,55.3,19.7L55.3,19.7z M56.6,15.3h2.6v3.2h-2.6L56.6,15.3z"/>
<path class="st3" d="M147.1,13.3h-18.2c-0.1,0-0.2,0.1-0.3,0.2v0.7c0,0.1,0.1,0.2,0.3,0.3h17.4l-0.5,1.8c0,0.1,0.1,0.2,0.2,0.3h1.2
	c0.2,0,0.2-0.1,0.2-0.3s0.5-1.5,0.6-1.9S148.3,13.3,147.1,13.3z M135.6,21.5h-5.3c-0.6,0-1.1,0.5-1.1,1.1c0,0,0,0,0,0V25
	c0,0.6,0.5,1.1,1.1,1.1l0,0h5.3c0.6,0,1.1-0.5,1.1-1.1c0,0,0,0,0,0v-2.5C136.9,21.9,136.3,21.5,135.6,21.5z M134.3,25h-2.4v-2.3h2.4
	V25z M128.9,10.4h7.6v0.7h-6c-0.1,0-0.2,0.1-0.3,0.2v1c0,0.1,0.1,0.2,0.3,0.2h14.7c0.1,0,0.2-0.1,0.2-0.2v-1c0-0.1-0.1-0.2-0.2-0.2
	h-6v-0.7h7.6c0.1,0,0.2-0.1,0.2-0.2V9.3c0-0.1-0.1-0.2-0.2-0.2h-7.6V8.5c0-0.1-0.1-0.2-0.2-0.2h-2.2c-0.1,0-0.2,0.1-0.3,0.2v0.6
	h-7.6c-0.1,0-0.2,0.1-0.3,0.2v1C128.7,10.4,128.8,10.4,128.9,10.4z M129.5,17.3c-0.1,0-0.2,0.1-0.3,0.3v1c0,0.1,0.1,0.2,0.3,0.2
	h16.6c0.1,0,0.2-0.1,0.2-0.2v-1c0-0.1-0.1-0.2-0.2-0.3h-7v-0.7h6c0.1,0,0.2-0.1,0.2-0.3v-0.9c0-0.1-0.1-0.2-0.2-0.3h-14.7
	c-0.1,0-0.2,0.1-0.3,0.3v1c0,0.1,0.1,0.2,0.3,0.2h6v0.7h-7L129.5,17.3z M148,19.4h-20.2c-0.1,0-0.2,0.1-0.2,0.3v1
	c0,0.1,0.1,0.2,0.2,0.2h15.1v0.7h-5c-0.1,0-0.2,0.1-0.3,0.2v1c0,0.1,0.1,0.2,0.3,0.2h1.5l0.2,2c0,0.1,0.1,0.2,0.2,0.3h1.6
	c0.1,0,0.1,0,0.1-0.1l0,0l-0.6-2.2h1.8v2.1c0,0.6-0.1,0.9-1.1,0.9h-0.4c-0.1,0-0.1,0-0.1,0.1v1c0,0.2,0.2,0.4,0.4,0.4h1
	c2.2,0,2.9-0.3,2.9-2.2v-2.4h1.4c0.1,0,0.2-0.1,0.2-0.3v-1c0-0.1-0.1-0.2-0.2-0.3h-1.4v-0.7h2.6c0.1,0,0.2-0.1,0.3-0.3v-1
	C148.1,19.5,148.1,19.4,148,19.4z"/>
<path class="st3" d="M123.3,26.2l-0.7,0.9c-0.1,0.1-0.2,0.2-0.3,0.1c0,0,0,0,0,0l0,0c-5.6-2.3-8.2-7.1-9.4-11.3
	c-1.2,4.2-3.8,8.9-9.4,11.3l0,0c-0.1,0.1-0.3,0-0.4-0.1c0,0,0,0,0,0l-0.7-0.9c-0.1-0.1-0.1-0.2,0-0.2c0.4-0.3,0.9-0.5,1.3-0.7
	c7.5-4.8,7.7-15,7.7-16.5l0,0c0-0.1,0.1-0.1,0.1-0.1l0,0h2.6c0.1,0,0.1,0.1,0.1,0.1c0,0,0,0,0,0l0,0c0,1.5,0.3,11.7,7.7,16.5
	c0.4,0.2,0.9,0.5,1.3,0.7C123.4,26,123.3,26.2,123.3,26.2z"/>
<path class="st3" d="M87.4,18.4h-1.2c-0.1,0-0.2,0.1-0.3,0.3v6.2c0,0.6-0.1,0.9-1.1,0.9h-0.5c-0.1,0-0.1,0.1-0.1,0.1c0,0,0,0,0,0v1
	c0,0.2,0.2,0.4,0.4,0.4h1c2.2,0,2.9-0.4,2.9-2.3v-5.4C88.6,18.9,88.1,18.4,87.4,18.4C87.5,18.4,87.5,18.4,87.4,18.4z M97.6,20
	c-1.5-0.7-2.8-1.6-3.9-2.7h3.9c0.1,0,0.2-0.1,0.2-0.2V16c0-0.1-0.1-0.2-0.2-0.3H84.3c0.5-0.6,0.9-1.2,1.3-1.8h9.5
	c0.1,0,0.2-0.1,0.2-0.3v-1.1c0-0.1-0.1-0.2-0.2-0.2h-8.6c0.4-0.6,0.7-1.2,1-1.8h9.3c0.1,0,0.2-0.1,0.3-0.2V9.1
	c0-0.1-0.1-0.2-0.3-0.3h-8.7c0.1-0.2,0.1-0.4,0.3-0.6s0.1-0.4-0.1-0.5c-0.6-0.2-1.2-0.3-1.8-0.4c-0.2-0.1-0.4,0-0.5,0.2c0,0,0,0,0,0
	l-0.1,0.5c0,0.2-0.1,0.4-0.2,0.6h-7.7c-0.1,0-0.2,0.1-0.3,0.2v1.1c0,0.1,0.1,0.2,0.3,0.3H85c-0.2,0.6-0.6,1.2-0.8,1.8h-4.5
	c-0.1,0-0.2,0.1-0.2,0.3v1.1c0,0.1,0.1,0.2,0.2,0.3h3.6c-0.4,0.6-0.9,1.2-1.2,1.8H77c-0.1,0-0.2,0.1-0.2,0.3v1.1
	c0,0.1,0.1,0.2,0.2,0.2h3.6c-1,1.1-2.2,2-3.6,2.7c-0.4,0.1-0.1,0.4-0.1,0.4l0.2,0.6c0.1,0.1,0.2,0.2,0.4,0.1c0,0,0,0,0,0
	c0.8-0.3,1.6-0.7,2.3-1.1c1.5,0.4,2.9,0.9,4.3,1.6c0.1,0.1,0.2,0.1,0.2,0c0,0,0,0,0,0l0.7-1.3c0,0,0.1-0.1-0.1-0.3
	c-1.2-0.4-2.3-0.8-3.6-1.1c0.6-0.5,1.1-1,1.7-1.6h8.3c0.5,0.5,1.1,1,1.7,1.5c-1.1,0.5-2.3,0.8-3.6,1c-0.1,0-0.1,0.1-0.1,0.2l0.4,1.5
	c0,0.1,0.1,0.1,0.2,0.1c1.5-0.4,2.9-1.1,4.3-1.8c0.9,0.6,1.8,1.1,2.8,1.5c0.1,0.1,0.3,0,0.4-0.1c0,0,0,0,0,0l0.3-0.6
	C97.8,20.5,98,20.1,97.6,20z M85.1,23.5C85,23.3,85,23,85,22.7c0-0.1-0.1-0.1-0.2-0.1c-2.1,1-4.3,1.8-6.6,2.3C78,24.9,78,25,78,25.1
	c0.2,0.4,0.4,0.9,0.6,1.4c0,0.1,0.3,0.1,0.4,0.1c2.1-0.8,4.1-1.7,6-2.8C85.1,23.8,85.1,23.7,85.1,23.5z M96.1,25
	c-2-0.9-4-1.6-6.1-2.2c-0.2-0.1-0.2,0.1-0.2,0.1l-0.4,0.9c0,0-0.1,0.1,0.1,0.2c1.9,0.7,3.7,1.6,5.4,2.6c0.3,0.1,0.4,0.1,0.5-0.1
	c0.4-0.5,0.5-0.7,0.9-1.2C96.3,25.1,96.3,25,96.1,25L96.1,25z"/>
</svg>
